<svg xmlns="http://www.w3.org/2000/svg" viewBox="0 0 32 32">
  <rect width="32" height="32" rx="8" fill="#f97316" />
  <g
    fill="none"
    stroke="#ffffff"
    stroke-linecap="round"
    stroke-linejoin="round"
    stroke-width="2"
    transform="translate(4 4)"
  >
    <path d="M9.94 15.5A2 2 0 0 0 8.5 14.06L2.37 12.48a.5.5 0 0 1 0-.96L8.5 9.94A2 2 0 0 0 9.94 8.5l1.58-6.13a.5.5 0 0 1 .96 0l1.58 6.13a2 2 0 0 0 1.44 1.44l6.13 1.58a.5.5 0 0 1 0 .96l-6.13 1.58a2 2 0 0 0-1.44 1.44l-1.58 6.13a.5.5 0 0 1-.96 0z" />
    <path d="M20 3v4" />
    <path d="M22 5h-4" />
    <path d="M4 17v2" />
    <path d="M5 18H3" />
  </g>
</svg>
